<svg width="15" height="16" viewBox="0 0 15 16" fill="none" xmlns="http://www.w3.org/2000/svg">
<path opacity="0.1" d="M13.3333 4C13.3333 5.71822 10.5476 7.11111 7.11111 7.11111C3.67467 7.11111 0.888889 5.71822 0.888889 4C0.888889 2.28178 3.67467 0.888885 7.11111 0.888885C10.5476 0.888885 13.3333 2.28178 13.3333 4Z" fill="#F2F2F2"/>
<path opacity="0.1" d="M13.1389 9.03735C12.7999 9.51639 12.2593 9.93188 11.5979 10.2627C10.4395 10.8418 8.85294 11.1944 7.11111 11.1944C5.36925 11.1944 3.78268 10.8418 2.62437 10.2627C1.96289 9.93188 1.42234 9.51639 1.08333 9.03735V11.7778C1.08333 12.5235 1.69296 13.251 2.79829 13.8037C3.89199 14.3506 5.41653 14.6944 7.11111 14.6944C8.80565 14.6944 10.3303 14.3506 11.424 13.8037C12.5293 13.251 13.1389 12.5235 13.1389 11.7778V9.03735Z" fill="#F2F2F2"/>
<path d="M13.3333 4C13.3333 5.71822 10.5476 7.11111 7.11111 7.11111C3.67467 7.11111 0.888889 5.71822 0.888889 4C0.888889 2.28178 3.67467 0.888885 7.11111 0.888885C10.5476 0.888885 13.3333 2.28178 13.3333 4Z" stroke="#F2F2F2" stroke-width="1.77778"/>
<path d="M13.3333 7.88889C13.3333 9.60707 10.5476 11 7.11111 11C3.67467 11 0.888889 9.60707 0.888889 7.88889" stroke="#F2F2F2" stroke-width="1.77778"/>
<path d="M0.888889 4V11.7778C0.888889 13.496 3.67467 14.8889 7.11111 14.8889C10.5476 14.8889 13.3333 13.496 13.3333 11.7778V4" stroke="#F2F2F2" stroke-width="1.77778"/>
</svg>
