<svg width="16" height="16" viewBox="0 0 16 16" fill="none" xmlns="http://www.w3.org/2000/svg">
<g clip-path="url(#clip0_10_34)">
<path fill-rule="evenodd" clip-rule="evenodd" d="M13.3333 0.666664C14.4379 0.666664 15.3333 1.5621 15.3333 2.66666V9.33333C15.3333 10.4379 14.4379 11.3333 13.3333 11.3333H9.04133L12.4268 14.1545C12.7097 14.3902 12.7479 14.8106 12.5121 15.0935C12.2765 15.3763 11.8561 15.4145 11.5732 15.1788L8.66667 12.7567V14.6667C8.66667 15.0349 8.3682 15.3333 8 15.3333C7.6318 15.3333 7.33333 15.0349 7.33333 14.6667V12.7567L4.42679 15.1788C4.14394 15.4145 3.72356 15.3763 3.48785 15.0935C3.25214 14.8106 3.29036 14.3902 3.57321 14.1545L6.95867 11.3333H2.66667C1.5621 11.3333 0.666666 10.4379 0.666666 9.33333V2.66666C0.666666 1.5621 1.5621 0.666664 2.66667 0.666664H13.3333ZM13.3333 2C13.7015 2 14 2.29848 14 2.66666V9.33333C14 9.70153 13.7015 10 13.3333 10H2.66667C2.29848 10 2 9.70153 2 9.33333V2.66666C2 2.29848 2.29848 2 2.66667 2H13.3333Z" fill="white"/>
</g>
<defs>
<clipPath id="clip0_10_34">
<rect width="16" height="16" fill="white"/>
</clipPath>
</defs>
</svg>
