<svg width="14" height="14" viewBox="0 0 14 14" fill="none" xmlns="http://www.w3.org/2000/svg">
<g clip-path="url(#clip0_10_38)">
<path d="M4.65218 6.08691H3.26091V7.4783H4.65218V6.08691Z" fill="white"/>
<path d="M10.7391 6.08691H9.34782V7.4783H10.7391V6.08691Z" fill="white"/>
<path d="M8.71016 6.08691H7.31888V7.4783H8.71016V6.08691Z" fill="white"/>
<path d="M4.65218 8.26082H3.26091V9.65221H4.65218V8.26082Z" fill="white"/>
<path d="M8.71016 8.26082H7.31888V9.65221H8.71016V8.26082Z" fill="white"/>
<path d="M6.6812 8.26082H5.28992V9.65221H6.6812V8.26082Z" fill="white"/>
<path d="M10.7391 10.4347H9.34782V11.8261H10.7391V10.4347Z" fill="white"/>
<path d="M8.71016 10.4347H7.31888V11.8261H8.71016V10.4347Z" fill="white"/>
<path d="M6.6812 10.4347H5.28992V11.8261H6.6812V10.4347Z" fill="white"/>
<path d="M12.0115 1.50516H10.8801V2.58988C10.8801 2.99463 10.5466 3.32379 10.1368 3.32379H8.65957C8.24974 3.32379 7.91631 2.99463 7.91631 2.58988V1.50516H6.08171V2.57968C6.08171 2.99006 5.74459 3.32379 5.3302 3.32379H3.86939C3.45499 3.32379 3.11787 2.99006 3.11787 2.57968V1.50516H1.98649C1.25078 1.50516 0.652229 2.0983 0.652229 2.82734V12.6778C0.652229 13.4068 1.25078 14 1.98649 14H12.0115C12.7483 14 13.3478 13.4069 13.3478 12.6778V2.82734C13.3478 2.09833 12.7483 1.50516 12.0115 1.50516ZM12.3913 12.6521C12.3913 12.8862 12.234 13.0434 12 13.0434H2.00003C1.76597 13.0434 1.60871 12.8862 1.60871 12.6521V4.86961H12.3913V12.6521Z" fill="white"/>
<path d="M3.86982 2.80293H5.32976C5.45338 2.80293 5.55395 2.70304 5.55395 2.58024V0.560355C5.55395 0.251371 5.30048 0 4.98887 0H4.21069C3.89911 0 3.64555 0.251344 3.64555 0.560355V2.58024C3.64558 2.70304 3.74615 2.80293 3.86982 2.80293Z" fill="white"/>
<path d="M8.65957 2.80293H10.1368C10.2557 2.80293 10.3524 2.70687 10.3524 2.58893V0.551742C10.3524 0.247543 10.1028 0 9.79592 0H9.00047C8.69364 0 8.44405 0.247543 8.44405 0.551742V2.58893C8.44402 2.70687 8.54074 2.80293 8.65957 2.80293Z" fill="white"/>
</g>
<defs>
<clipPath id="clip0_10_38">
<rect width="14" height="14" fill="white"/>
</clipPath>
</defs>
</svg>
