<svg width="13" height="13" viewBox="0 0 13 13" fill="none" xmlns="http://www.w3.org/2000/svg">
<g clip-path="url(#clip0_12_153)">
<path fill-rule="evenodd" clip-rule="evenodd" d="M12.884 5.20254H6.63734C6.63734 5.85218 6.63734 7.15133 6.63336 7.80096H10.2531C10.1144 8.45059 9.62262 9.36025 8.92774 9.81824C8.92774 9.81824 8.92641 9.82207 8.92508 9.82142C8.00122 10.4314 6.78203 10.5698 5.87676 10.3879C4.45779 10.106 3.33481 9.07692 2.87886 7.76985C2.88151 7.7679 2.88351 7.74989 2.8855 7.74859C2.60011 6.93784 2.60011 5.85218 2.8855 5.20254H2.88484C3.25252 4.00852 4.40933 2.91913 5.83029 2.62095C6.97316 2.37864 8.26273 2.64095 9.21114 3.52835C9.33724 3.40492 10.9566 1.82378 11.0781 1.69515C7.83795 -1.23925 2.64989 -0.207012 0.708593 3.58231H0.707928C0.707928 3.58231 0.708598 3.58246 0.704616 3.58961C-0.255745 5.45081 -0.215925 7.64391 0.711251 9.41612C0.708596 9.41806 0.706607 9.41925 0.704616 9.4212C1.54485 11.0518 3.07399 12.3023 4.91639 12.7785C6.87362 13.2917 9.36444 12.9409 11.033 11.4318L11.035 11.4337C12.4486 10.1604 13.3287 7.99143 12.884 5.20254Z" fill="white"/>
</g>
<defs>
<clipPath id="clip0_12_153">
<rect width="13" height="13" fill="white"/>
</clipPath>
</defs>
</svg>
