<svg width="13" height="13" viewBox="0 0 13 13" fill="none" xmlns="http://www.w3.org/2000/svg">
<path d="M2.16666 8.125H10.8333" stroke="#939393" stroke-width="1.44444" stroke-linecap="round" stroke-linejoin="round"/>
<path d="M2.16666 4.875H10.8333" stroke="#939393" stroke-width="1.44444" stroke-linecap="round" stroke-linejoin="round"/>
<path d="M6.5 11.375C9.19239 11.375 11.375 9.19239 11.375 6.5C11.375 3.80761 9.19239 1.625 6.5 1.625C3.80761 1.625 1.625 3.80761 1.625 6.5C1.625 9.19239 3.80761 11.375 6.5 11.375Z" stroke="#939393" stroke-width="1.44444" stroke-linecap="round" stroke-linejoin="round"/>
<path d="M6.50022 11.2764L6.11336 11.6555C6.21519 11.7595 6.35467 11.8181 6.50022 11.8181C6.64576 11.8181 6.78519 11.7595 6.88708 11.6555L6.50022 11.2764ZM6.50022 1.72343L6.88708 1.34432C6.78519 1.24035 6.64576 1.18176 6.50022 1.18176C6.35467 1.18176 6.21519 1.24035 6.1133 1.34432L6.50022 1.72343ZM7.90855 6.49997C7.90855 8.21217 7.22437 9.76351 6.11336 10.8973L6.88708 11.6555C8.18854 10.3274 8.99188 8.50695 8.99188 6.49997H7.90855ZM6.1133 2.10254C7.22437 3.23637 7.90855 4.78772 7.90855 6.49997H8.99188C8.99188 4.49292 8.18854 2.67243 6.88708 1.34432L6.1133 2.10254ZM5.09188 6.49997C5.09188 4.78772 5.77601 3.23637 6.88708 2.10254L6.1133 1.34432C4.81188 2.67243 4.00854 4.49292 4.00854 6.49997H5.09188ZM6.88708 10.8973C5.77601 9.76351 5.09188 8.21217 5.09188 6.49997H4.00854C4.00854 8.50695 4.81189 10.3274 6.11336 11.6555L6.88708 10.8973Z" fill="#939393"/>
</svg>
