<svg width="13" height="13" viewBox="0 0 13 13" fill="none" xmlns="http://www.w3.org/2000/svg">
<g clip-path="url(#clip0_9_222)">
<path d="M5.72827 12.9917C4.5114 12.904 3.30868 12.5977 2.57107 12.1876C2.15092 11.954 1.83083 11.667 1.70523 11.4112L1.63049 11.259V6.48462V1.71026L1.68963 1.59019C1.95389 1.05366 2.79729 0.569979 3.97461 0.279763C4.37426 0.181242 4.95121 0.0831298 5.42189 0.0336555C5.90251 -0.0168774 7.17645 -0.00918917 7.65588 0.0472123C8.93011 0.196917 10.0144 0.532067 10.6826 0.982777C10.9403 1.15659 11.2047 1.4347 11.2943 1.62613L11.3711 1.79027L11.3645 6.55018L11.3579 11.3101L11.2963 11.4354C11.2624 11.5043 11.16 11.6398 11.0687 11.7365C10.5131 12.3255 9.32127 12.7612 7.75802 12.9469C7.4394 12.9847 6.05516 13.0152 5.72827 12.9917ZM7.97077 8.90068C7.96609 8.88848 7.78418 8.72643 7.56653 8.54055C7.34887 8.35466 7.16141 8.19384 7.14995 8.18316C7.13849 8.17248 7.17871 8.13469 7.23932 8.09916C7.29992 8.06363 7.41604 7.96479 7.49736 7.87952C7.73517 7.63015 7.84737 7.32213 7.84737 6.91865C7.84737 6.52145 7.72636 6.20097 7.48398 5.95632C7.23971 5.70973 6.95923 5.60378 6.55079 5.60378C5.9212 5.60378 5.43768 5.97114 5.28335 6.56673C5.23027 6.77159 5.23055 7.18554 5.28391 7.36719C5.42309 7.84102 5.80214 8.18514 6.27388 8.26595C6.43352 8.2933 6.45514 8.30508 6.56398 8.42408C6.62866 8.49479 6.7614 8.63595 6.85894 8.73775L7.0363 8.92286H7.5078C7.76712 8.92286 7.97545 8.91288 7.97077 8.90068ZM6.35384 7.58054C6.24033 7.52136 6.19742 7.47543 6.13269 7.34384C6.0827 7.24221 6.07415 7.1844 6.07359 6.94419C6.07303 6.70011 6.0808 6.64736 6.133 6.54137C6.2184 6.36794 6.33609 6.28583 6.51814 6.27266C6.77156 6.25428 6.91784 6.37865 6.9945 6.67754C7.08849 7.044 6.98513 7.4336 6.75961 7.56289C6.6413 7.63073 6.46482 7.63841 6.35384 7.58054ZM4.26398 8.26075C4.75831 8.167 5.03892 7.87952 5.03892 7.46684C5.03892 7.10073 4.85776 6.8874 4.35705 6.66387C4.07042 6.53592 3.9666 6.4556 3.9666 6.36176C3.9666 6.28398 4.06513 6.19875 4.17983 6.17734C4.29181 6.15642 4.58884 6.20801 4.76424 6.27886L4.91127 6.33826V6.01282V5.68735L4.75169 5.65195C4.65307 5.63008 4.44584 5.61695 4.20915 5.61762C3.87388 5.61762 3.80824 5.62579 3.68207 5.67589C3.31353 5.8222 3.13864 6.07143 3.14144 6.44633C3.14406 6.79729 3.32921 7.01621 3.79 7.21316C4.06188 7.32937 4.17086 7.41785 4.17086 7.52242C4.17086 7.74462 3.80062 7.77197 3.40862 7.57872C3.30127 7.52579 3.20482 7.47818 3.19428 7.4729C3.18375 7.46763 3.17514 7.61966 3.17514 7.81075C3.17514 8.15662 3.17551 8.15829 3.23813 8.18213C3.47395 8.27179 3.99515 8.31173 4.26398 8.26075ZM9.91541 7.9399V7.6463H9.46861H9.02181V6.6378V5.62932H8.62608H8.23034V6.93141V8.23351H9.07287H9.91541V7.9399ZM7.15802 2.79468C7.94442 2.74014 8.5339 2.63716 9.05264 2.46372C9.56941 2.29093 9.87469 2.08186 9.94298 1.85395C9.96928 1.76612 9.9674 1.73281 9.93063 1.63652C9.76576 1.20483 8.84477 0.873152 7.43743 0.738676C6.83543 0.681142 5.74061 0.699793 5.16661 0.777329C4.29078 0.895666 3.57999 1.11547 3.26395 1.36572C2.62463 1.87198 3.30071 2.42879 4.87298 2.69087C5.55471 2.80451 6.43793 2.84464 7.15802 2.79468Z" fill="#F2F2F2"/>
</g>
<defs>
<clipPath id="clip0_9_222">
<rect width="13" height="13" fill="white"/>
</clipPath>
</defs>
</svg>
