<svg width="12" height="12" viewBox="0 0 12 12" fill="none" xmlns="http://www.w3.org/2000/svg">
<path d="M5.34662 0.267129C5.47841 -0.0890332 5.98216 -0.0890333 6.11395 0.267129L7.4206 3.79828C7.46203 3.91025 7.55032 3.99854 7.66229 4.03998L11.1934 5.34662C11.5496 5.47841 11.5496 5.98216 11.1934 6.11395L7.66229 7.4206C7.55032 7.46203 7.46203 7.55032 7.4206 7.66229L6.11395 11.1934C5.98216 11.5496 5.47841 11.5496 5.34662 11.1934L4.03998 7.66229C3.99854 7.55032 3.91025 7.46203 3.79828 7.4206L0.267129 6.11395C-0.0890331 5.98216 -0.0890333 5.47841 0.267129 5.34662L3.79828 4.03998C3.91025 3.99854 3.99854 3.91025 4.03998 3.79828L5.34662 0.267129Z" fill="#D9D9D9"/>
</svg>
